<?xml version="1.0" encoding="UTF-8" standalone="no"?>
<!DOCTYPE svg PUBLIC "-//W3C//DTD SVG 1.1//EN" "http://www.w3.org/Graphics/SVG/1.1/DTD/svg11.dtd">
<svg width="100%" height="100%" viewBox="0 0 485 473" version="1.1" xmlns="http://www.w3.org/2000/svg" xmlns:xlink="http://www.w3.org/1999/xlink" xml:space="preserve" xmlns:serif="http://www.serif.com/" style="fill-rule:evenodd;clip-rule:evenodd;stroke-linejoin:round;stroke-miterlimit:2;">
    <g transform="matrix(1,0,0,1,-1214.07,-858.963)">
        <path d="M1214.57,859.463L1214.57,1233.48C1214.57,1289.73 1243.74,1330.56 1318.32,1330.56L1480.4,1330.56L1390.4,1281.39L1321.24,1281.39C1277.07,1281.39 1263.74,1260.14 1263.74,1233.06L1263.74,859.463L1214.57,859.463Z" style="fill:rgb(0,5,255);fill-rule:nonzero;"/>
        <g transform="matrix(1,0,0,1,-10,0)">
            <path d="M1497.49,1049.31C1481.65,1049.31 1474.15,1056.81 1474.15,1072.22L1474.15,1181.39C1474.15,1196.81 1481.65,1204.31 1497.49,1204.31L1614.57,1204.31C1647.49,1204.31 1657.9,1218.89 1657.9,1241.39C1657.9,1265.56 1646.65,1281.39 1618.74,1281.39L1445.4,1281.39L1535.4,1330.56L1617.07,1330.56C1681.65,1330.56 1707.07,1293.48 1707.07,1242.23C1707.07,1197.23 1687.9,1159.73 1612.07,1159.73L1528.74,1159.73C1524.99,1159.73 1523.32,1158.06 1523.32,1154.73L1523.32,1103.48C1523.32,1099.73 1524.99,1098.48 1528.74,1098.48L1708.46,1098.48L1708.46,1049.31L1497.49,1049.31Z" style="fill:rgb(0,5,255);fill-rule:nonzero;"/>
        </g>
    </g>
</svg>
